<?xml version="1.0" encoding="utf-8"?>
<!-- Generator: Adobe Illustrator 24.0.1, SVG Export Plug-In . SVG Version: 6.00 Build 0)  -->
<svg version="1.1" id="Layer_1" xmlns="http://www.w3.org/2000/svg" xmlns:xlink="http://www.w3.org/1999/xlink" x="0px" y="0px"
	 viewBox="0 0 16 16" style="enable-background:new 0 0 16 16;" xml:space="preserve">
<style type="text/css">
	.st0{fill:#FFFFFF;}
</style>
<title>Icons</title>
<path class="st0" d="M15.7,4.4c-0.4-0.5-1.2-0.5-1.7-0.1L8,9.4L1.9,4.3C1.4,3.9,0.7,3.9,0.3,4.4C-0.1,4.9-0.1,5.6,0.4,6l6.8,5.7
	c0.1,0,0.1,0.1,0.2,0.1c0,0,0.1,0.1,0.1,0.1C7.7,12,7.8,12,8,12c0,0,0,0,0,0s0,0,0,0c0.2,0,0.3,0,0.4-0.1c0,0,0.1,0,0.1-0.1
	c0.1,0,0.1-0.1,0.2-0.1L15.6,6C16.1,5.6,16.1,4.9,15.7,4.4z"/>
</svg>
