<?xml version="1.0" encoding="utf-8"?>
<!-- Generator: Adobe Illustrator 24.0.1, SVG Export Plug-In . SVG Version: 6.00 Build 0)  -->
<svg version="1.1" id="Layer_1" xmlns="http://www.w3.org/2000/svg" xmlns:xlink="http://www.w3.org/1999/xlink" x="0px" y="0px"
	 viewBox="0 0 32 32" style="enable-background:new 0 0 32 32;" xml:space="preserve">
<style type="text/css">
	.st0{fill:#FFFFFF;}
</style>
<title>Icons</title>
<path class="st0" d="M0.1,16.5C0.1,16.5,0.1,16.5,0.1,16.5C0,16.3,0,16.2,0,16c0-0.2,0-0.3,0.1-0.4c0,0,0,0,0-0.1
	c0.1-0.1,0.1-0.2,0.2-0.3c0,0,0,0,0,0l10.4-9.9c0.4-0.4,1.2-0.4,1.6,0c0.4,0.4,0.4,1.2,0,1.6l-8.4,8h27c0.6,0,1.1,0.5,1.1,1.1
	c0,0.6-0.5,1.1-1.1,1.1h-27l8.4,8c0.4,0.4,0.5,1.1,0,1.6c-0.2,0.2-0.5,0.3-0.8,0.3c-0.3,0-0.6-0.1-0.8-0.3L0.3,16.8c0,0,0,0,0,0
	C0.2,16.7,0.2,16.6,0.1,16.5z"/>
</svg>
