<?xml version="1.0" encoding="utf-8"?>
<!-- Generator: Adobe Illustrator 24.0.1, SVG Export Plug-In . SVG Version: 6.00 Build 0)  -->
<svg version="1.1" id="Layer_1" xmlns="http://www.w3.org/2000/svg" xmlns:xlink="http://www.w3.org/1999/xlink" x="0px" y="0px"
	 viewBox="0 0 32 32" style="enable-background:new 0 0 32 32;" xml:space="preserve">
<style type="text/css">
	.st0{fill:#FFFFFF;}
</style>
<title>Icons</title>
<path class="st0" d="M31.7,16.8L31.7,16.8l-10.4,9.9c-0.2,0.2-0.5,0.3-0.8,0.3c-0.3,0-0.6-0.1-0.8-0.3c-0.5-0.5-0.4-1.2,0-1.6l8.4-8
	h-27C0.5,17.1,0,16.6,0,16s0.5-1.1,1.1-1.1h27l-8.4-8c-0.4-0.4-0.4-1.2,0-1.6s1.2-0.4,1.6,0l10.4,9.9l0,0c0.1,0.1,0.1,0.2,0.2,0.3
	c0,0.1,0,0.1,0,0.1C32,15.7,32,15.8,32,16c0,0.2,0,0.3-0.1,0.5l0,0C31.8,16.6,31.8,16.7,31.7,16.8z"/>
</svg>
