<svg id="Layer_1" data-name="Layer 1" xmlns="http://www.w3.org/2000/svg" viewBox="0 0 32 32"><title>Icons</title><path d="M28.36,0H3.64A3.64,3.64,0,0,0,0,3.64V28.36A3.64,3.64,0,0,0,3.64,32H28.36A3.64,3.64,0,0,0,32,28.36V3.64A3.64,3.64,0,0,0,28.36,0Zm1.32,28.36a1.32,1.32,0,0,1-1.32,1.32H22.13V19.32h3.55l.53-4.46H22.13V12.94a2.19,2.19,0,0,1,2.48-2.48H26.4V5.15H24.61a7.45,7.45,0,0,0-7.78,7.79v1.92H13.21v4.46h3.62V29.68H3.64a1.32,1.32,0,0,1-1.32-1.32V3.64A1.32,1.32,0,0,1,3.64,2.32H28.36a1.32,1.32,0,0,1,1.32,1.32Z" style="fill:#fff"/></svg>