<?xml version="1.0" encoding="utf-8"?>
<!-- Generator: Adobe Illustrator 24.0.1, SVG Export Plug-In . SVG Version: 6.00 Build 0)  -->
<svg fill="currentColor" version="1.1" id="Layer_1" xmlns="http://www.w3.org/2000/svg" xmlns:xlink="http://www.w3.org/1999/xlink" x="0px" y="0px"
	 viewBox="0 0 32 32" style="enable-background:new 0 0 32 32;" xml:space="preserve">
<path class="st0" d="M26.7,0H5.3C2.4,0,0,2.4,0,5.3v21.3C0,29.6,2.4,32,5.3,32h21.3c2.9,0,5.3-2.4,5.3-5.3V5.3C32,2.4,29.6,0,26.7,0
	z M29.8,26.7c0,1.7-1.4,3.1-3.1,3.1h-4.5V19.3h3.6l0.5-4.5h-4.1v-1.9c0-2.5,1.9-2.5,2.5-2.5h1.8V5.1h-1.8c-4.6,0-7.8,3.2-7.8,7.8
	v1.9h-3.6v4.5h3.6v10.4H5.3c-1.7,0-3.1-1.4-3.1-3.1V5.3c0-1.7,1.4-3.1,3.1-3.1h21.3c1.7,0,3.1,1.4,3.1,3.1V26.7z"/>
</svg>
