<?xml version="1.0" encoding="utf-8"?>
<!-- Generator: Adobe Illustrator 24.0.1, SVG Export Plug-In . SVG Version: 6.00 Build 0)  -->
<svg version="1.1" id="Layer_1" xmlns="http://www.w3.org/2000/svg" xmlns:xlink="http://www.w3.org/1999/xlink" x="0px" y="0px"
	 viewBox="0 0 32 32" style="enable-background:new 0 0 32 32;" xml:space="preserve">
<style type="text/css">
	.st0{fill:#FFFFFF;}
</style>
<path class="st0" d="M27.1,0H4.9C2.2,0,0,2.2,0,4.9v22.2C0,29.8,2.2,32,4.9,32h22.2c2.7,0,4.9-2.2,4.9-4.9V4.9C32,2.2,29.8,0,27.1,0
	z M31,27.1c0,2.2-1.8,3.9-3.9,3.9h-4.7V19.5h3.7l0.6-4.7h-4.3v-2c0-2.6,2-2.6,2.6-2.6h1.9V4.7H25c-4.8,0-8.1,3.3-8.1,8.1v2h-3.8v4.7
	h3.8V31h-12C2.7,31,1,29.3,1,27.1V4.9C1,2.7,2.7,1,4.9,1h22.2C29.3,1,31,2.7,31,4.9V27.1z"/>
</svg>
