<svg id="Layer_1" data-name="Layer 1" xmlns="http://www.w3.org/2000/svg" viewBox="0 0 32 32"><title>Icons</title><path d="M24.46,0H7.54A7.55,7.55,0,0,0,0,7.54V24.46A7.55,7.55,0,0,0,7.54,32H24.46A7.55,7.55,0,0,0,32,24.46V7.54A7.55,7.55,0,0,0,24.46,0Zm5.22,24.46a5.22,5.22,0,0,1-5.22,5.22H7.54a5.22,5.22,0,0,1-5.22-5.22V7.54A5.22,5.22,0,0,1,7.54,2.32H24.46a5.22,5.22,0,0,1,5.22,5.22Z" style="fill:#fff"/><path d="M16,7.8A8.2,8.2,0,1,0,24.2,16,8.21,8.21,0,0,0,16,7.8Zm0,14.08A5.88,5.88,0,1,1,21.88,16,5.89,5.89,0,0,1,16,21.88Z" style="fill:#fff"/><circle cx="24.82" cy="6.92" r="1.94" style="fill:#fff"/></svg>