<?xml version="1.0" encoding="utf-8"?>
<!-- Generator: Adobe Illustrator 24.0.1, SVG Export Plug-In . SVG Version: 6.00 Build 0)  -->
<svg fill="currentColor" version="1.1" id="Layer_1" xmlns="http://www.w3.org/2000/svg" xmlns:xlink="http://www.w3.org/1999/xlink" x="0px" y="0px"
	 viewBox="0 0 32 32" style="enable-background:new 0 0 32 32;" xml:space="preserve">
<g>
	<g>
		<path class="st0" d="M24.5,32h-17C3.4,32,0,28.6,0,24.5v-17C0,3.4,3.4,0,7.5,0h17C28.6,0,32,3.4,32,7.5v17
			C32,28.6,28.6,32,24.5,32z M7.5,2.2c-2.9,0-5.3,2.4-5.3,5.3v17c0,2.9,2.4,5.3,5.3,5.3h17c2.9,0,5.3-2.4,5.3-5.3v-17
			c0-2.9-2.4-5.3-5.3-5.3H7.5z"/>
	</g>
	<g>
		<path class="st0" d="M16,24.2c-4.5,0-8.2-3.7-8.2-8.2s3.7-8.2,8.2-8.2s8.2,3.7,8.2,8.2S20.5,24.2,16,24.2z M16,10.1
			c-3.3,0-5.9,2.7-5.9,5.9s2.7,5.9,5.9,5.9s5.9-2.7,5.9-5.9S19.3,10.1,16,10.1z"/>
	</g>
	<g>
		<circle class="st0" cx="24.8" cy="6.9" r="1.9"/>
	</g>
</g>
</svg>
