<?xml version="1.0" encoding="utf-8"?>
<!-- Generator: Adobe Illustrator 24.0.1, SVG Export Plug-In . SVG Version: 6.00 Build 0)  -->
<svg version="1.1" id="Layer_1" xmlns="http://www.w3.org/2000/svg" xmlns:xlink="http://www.w3.org/1999/xlink" x="0px" y="0px"
	 viewBox="0 0 32 32" style="enable-background:new 0 0 32 32;" xml:space="preserve">
<style type="text/css">
	.st0{fill:#FFFFFF;}
</style>
<g>
	<path class="st0" d="M24.8,0H7.2C3.2,0,0,3.2,0,7.2v17.7C0,28.8,3.2,32,7.2,32h17.7c3.9,0,7.2-3.2,7.2-7.2V7.2
		C32,3.2,28.8,0,24.8,0z M31,24.8c0,3.4-2.8,6.2-6.2,6.2H7.2C3.7,31,1,28.3,1,24.8V7.2C1,3.7,3.7,1,7.2,1h17.7C28.3,1,31,3.7,31,7.2
		V24.8z"/>
	<path class="st0" d="M16,8.2c-4.3,0-7.8,3.5-7.8,7.8c0,4.3,3.5,7.8,7.8,7.8s7.8-3.5,7.8-7.8C23.8,11.7,20.3,8.2,16,8.2z M16,22.9
		c-3.8,0-6.9-3.1-6.9-6.9c0-3.8,3.1-6.9,6.9-6.9c3.8,0,6.9,3.1,6.9,6.9C22.9,19.8,19.8,22.9,16,22.9z"/>
	<path class="st0" d="M25.2,4.5c-1.1,0-2,0.9-2,2c0,1.1,0.9,2,2,2s2-0.9,2-2C27.2,5.4,26.3,4.5,25.2,4.5z"/>
</g>
</svg>
