<?xml version="1.0" encoding="utf-8"?>
<!-- Generator: Adobe Illustrator 24.0.1, SVG Export Plug-In . SVG Version: 6.00 Build 0)  -->
<svg fill="currentColor" version="1.1" id="Layer_1" xmlns="http://www.w3.org/2000/svg" xmlns:xlink="http://www.w3.org/1999/xlink" x="0px" y="0px"
	 viewBox="0 0 40 40" style="enable-background:new 0 0 40 40;" xml:space="preserve">
<title>Icons</title>
<g>
	<g>
		<g>
			<path class="st0" d="M20,25.4c-5.1,0-9.3-4.2-9.3-9.4s4.2-9.4,9.3-9.4c5.1,0,9.3,4.2,9.3,9.4S25.1,25.4,20,25.4z M20,9
				c-3.9,0-7.1,3.2-7.1,7.1s3.2,7.1,7.1,7.1c3.9,0,7.1-3.2,7.1-7.1S23.9,9,20,9z"/>
		</g>
	</g>
	<g>
		<path class="st0" d="M20,40c-0.2,0-0.4,0-0.5-0.1C18.8,39.5,4,31.4,4,16.1C4,7.2,11.2,0,20,0c8.8,0,16,7.2,16,16.1
			c0,15.4-14.8,23.5-15.5,23.8C20.4,40,20.2,40,20,40z M20,2.3c-7.6,0-13.8,6.2-13.8,13.8c0,12.5,11.2,20,13.8,21.5
			c2.6-1.6,13.8-9.1,13.8-21.5C33.8,8.4,27.6,2.3,20,2.3z"/>
	</g>
</g>
</svg>
