<svg id="Layer_1" data-name="Layer 1" xmlns="http://www.w3.org/2000/svg" viewBox="0 0 52 77"><title>Icons</title><polygon points="2.51 61.13 3.25 61.13 3.25 59.81 3.04 59.81 3.04 56.97 1.96 56.97 1.96 59.81 1.64 59.81 1.64 56.97 0.56 56.97 0.56 60.52 2.51 60.52 2.51 61.13" style="fill:#fff"/><polygon points="10.64 59.81 9.85 59.81 9.85 59.03 10.52 59.03 10.52 58.35 9.85 58.35 9.85 57.68 10.56 57.68 10.56 56.97 8.77 56.97 8.77 60.52 10.64 60.52 10.64 59.81" style="fill:#fff"/><path d="M18.29,57.2a.76.76,0,0,0-.36-.17,2.83,2.83,0,0,0-.67-.06H16.18v3.55h1.07V59.09h.29a1.82,1.82,0,0,0,.57-.08.54.54,0,0,0,.3-.24,1.23,1.23,0,0,0,.08-.5V58a2,2,0,0,0,0-.49A.53.53,0,0,0,18.29,57.2Zm-.7,1a.49.49,0,0,1-.05.26.29.29,0,0,1-.21.06h-.08v-.9a.48.48,0,0,1,.28.05.35.35,0,0,1,.06.24Z" style="fill:#fff"/><path d="M25.62,57a.62.62,0,0,0-.17.51l0,.7c0,.18-.11.28-.32.29V57H24v3.55h1.08V59a.37.37,0,0,1,.24.09.24.24,0,0,1,.1.21V60a.65.65,0,0,0,.17.52h1a.9.9,0,0,1-.15-.58v-.56c0-.38-.24-.59-.73-.64.49-.05.73-.26.73-.63V57.5a.68.68,0,0,1,.15-.53Z" style="fill:#fff"/><path d="M34.31,60.21a.8.8,0,0,0,.18-.41,6.34,6.34,0,0,0,0-.75v-.61a6.62,6.62,0,0,0,0-.77.74.74,0,0,0-.19-.4.92.92,0,0,0-.43-.28,1.55,1.55,0,0,0-.59-.1,1.81,1.81,0,0,0-.61.1,1,1,0,0,0-.42.28.77.77,0,0,0-.19.41,6.54,6.54,0,0,0,0,.76v.61a4.44,4.44,0,0,0,0,.76.74.74,0,0,0,.19.41,1,1,0,0,0,.42.28,1.89,1.89,0,0,0,.6.09,1.63,1.63,0,0,0,.61-.1A.92.92,0,0,0,34.31,60.21Zm-.86-.7a1.6,1.6,0,0,1,0,.4.14.14,0,0,1-.14.08c-.08,0-.12,0-.14-.07a1.4,1.4,0,0,1,0-.38V57.88a.73.73,0,0,1,0-.33.16.16,0,0,1,.13-.06.13.13,0,0,1,.13.07.73.73,0,0,1,0,.32Z" style="fill:#fff"/><path d="M42.25,60.46a.55.55,0,0,0,.31-.24,1.23,1.23,0,0,0,.1-.54v-.32a.81.81,0,0,0-.14-.52.83.83,0,0,0-.5-.24.86.86,0,0,0,.45-.19.65.65,0,0,0,.11-.43,1.08,1.08,0,0,0-.16-.67A.73.73,0,0,0,42,57a3.09,3.09,0,0,0-.77-.07H40.15v3.55H41.4A3.71,3.71,0,0,0,42.25,60.46Zm-1-2.88h.22a.21.21,0,0,1,.1.09.6.6,0,0,1,0,.23,1,1,0,0,1,0,.39.25.25,0,0,1-.2.06h-.11Zm0,1.34a.52.52,0,0,1,.29,0s.06.13.06.28v.33a.41.41,0,0,1-.06.27.46.46,0,0,1-.29.06Z" style="fill:#fff"/><path d="M50.29,60.48a.56.56,0,0,0,.37-.22,1.05,1.05,0,0,0,.12-.57V59a.86.86,0,0,0-.13-.54.59.59,0,0,0-.38-.23,4.53,4.53,0,0,0-.75,0h-.17V57H48.27v3.55h1.25A6.43,6.43,0,0,0,50.29,60.48Zm-.94-1.74a.59.59,0,0,1,.3,0,.52.52,0,0,1,.05.28v.51c0,.16,0,.25-.07.28a.58.58,0,0,1-.28,0Z" style="fill:#fff"/><polygon points="0.9 75.08 3.82 75.08 3.82 66.16 4.68 66.16 4.68 75.08 7.6 75.08 7.6 63.93 0.9 63.93 0.9 75.08" style="fill:#fff"/><path d="M15.87,64.88A2.6,2.6,0,0,0,14.72,64a4.09,4.09,0,0,0-1.61-.29,4.06,4.06,0,0,0-1.66.31,2.63,2.63,0,0,0-1.13.88,2.67,2.67,0,0,0-.5,1.28c-.05.47-.08,1.26-.08,2.38v1.9c0,1.15,0,2,.08,2.41A2.7,2.7,0,0,0,11.49,75a4.18,4.18,0,0,0,1.62.29A4.1,4.1,0,0,0,14.77,75a2.69,2.69,0,0,0,1.13-.88,2.73,2.73,0,0,0,.5-1.28c.05-.46.08-1.26.08-2.38v-1.9a21.6,21.6,0,0,0-.09-2.41A2.57,2.57,0,0,0,15.87,64.88Zm-2.31,7a5.33,5.33,0,0,1-.08,1.25.36.36,0,0,1-.38.26.35.35,0,0,1-.37-.23,5.26,5.26,0,0,1-.08-1.2V66.8a2.45,2.45,0,0,1,.12-1,.4.4,0,0,1,.35-.18.35.35,0,0,1,.36.22,3.37,3.37,0,0,1,.08,1Z" style="fill:#fff"/><path d="M24,67.91a10.18,10.18,0,0,0-2-.16h-.45V65.87h2.79V63.93H18.62V75.08H22a11.63,11.63,0,0,0,2.11-.14,1.41,1.41,0,0,0,1-.68,3.61,3.61,0,0,0,.33-1.79V70.31a3.22,3.22,0,0,0-.35-1.7A1.58,1.58,0,0,0,24,67.91Zm-1.54,4.23c0,.49-.07.79-.2.88a1.42,1.42,0,0,1-.75.14V69.5a1.36,1.36,0,0,1,.81.17,1.58,1.58,0,0,1,.14.86Z" style="fill:#fff"/><polygon points="30.41 70.4 32.23 70.4 32.23 68.28 30.41 68.28 30.41 66.17 32.35 66.17 32.35 63.94 27.5 63.94 27.5 75.08 32.55 75.08 32.55 72.85 30.41 72.85 30.41 70.4" style="fill:#fff"/><path d="M42.18,63.93H35.72v.34a36.73,36.73,0,0,1-.3,4.88,19.54,19.54,0,0,1-.77,3.6h-.6V77h2V75.08h4.7V77h2V72.74h-.59Zm-2.92,8.81H37.7a31.32,31.32,0,0,0,.7-6.52v-.08h.86Z" style="fill:#fff"/><path d="M49.77,63.94h-4.2L44.08,75.08h3l.18-2h1l.15,2h3ZM47.23,71.1c.07-1,.26-2.54.56-4.68.15,1.86.29,3.42.44,4.68Z" style="fill:#fff"/><path d="M35.12,45.74a6.83,6.83,0,1,1-6.81-7.34,7,7,0,0,1,2.35.41,2.74,2.74,0,0,0-.87-.47,8.17,8.17,0,0,0-2.49-.45,1.27,1.27,0,0,1-.89-.38c-.78-.73-1.55-1.48-2.37-2.15a45,45,0,0,0-8.5-5.54l-1.33-.62V17.87h4.15V12.4H14.21V8.27H9V12.4H5v5.47H9V27.2a87.87,87.87,0,0,0-9-1.87c.86.38,3.55,1.05,4.39,1.44a12.24,12.24,0,0,1,2.45,1.49,10.16,10.16,0,0,1,1.95,2c.56.75.89,1.51,1.4,2.3V16.67h-4V13.6h4V9.47H13V13.6h4.15v3.07H13v14.8a44,44,0,0,1,11.11,6.87,11.66,11.66,0,0,0-1.8.82.58.58,0,0,1-.57,0,7.24,7.24,0,0,0-2.35-.43,7.66,7.66,0,0,0-7.2,4.21,7.33,7.33,0,0,0,1.44,8.64,2.31,2.31,0,0,1,.69.73,1.24,1.24,0,0,1-.62.08c-1.2,0-2.41,0-3.61.07-1.8.11-3.61.13-5.42.26-1.17.08-2.35.16-3.52.33-.11,0-.28,0-.3.17s.2.17.33.18c1,.11,2,.27,3.06.32,2.65.11,5.3.24,8,.32s5.09.13,7.64.08a64.46,64.46,0,0,0,8.33-.51,8.58,8.58,0,0,0,5.73-3.38.53.53,0,0,1,.29.29c.37.75.77,1.5,1.12,2.27a.7.7,0,0,0,.75.49H49.39c.11,0,2.52,0,2.61-.19-.34,0-4.51-.15-5.15-.2l-3.4-.28-3.13-.24c-1.15-.09-2.3-.21-3.46-.28a.73.73,0,0,1-.73-.44c-.44-1-.91-1.92-1.38-2.9A8.57,8.57,0,0,0,35.12,45.74Z" style="fill:#fff"/><path d="M27.57,35.83s5.1-.26,5.57,4.17h0a20.62,20.62,0,0,0,14-19.39A20.73,20.73,0,0,0,11.6,6.27h4.62V10.4h4.15v9.47H16.22v8.05l.22.11a47.2,47.2,0,0,1,8.88,5.78c.78.64,1.5,1.32,2.19,2l.12.11" style="fill:#fff"/></svg>