<svg id="Layer_1" data-name="Layer 1" xmlns="http://www.w3.org/2000/svg" viewBox="0 0 40 40"><title>Icons</title><path d="M20,6.69a9.37,9.37,0,1,0,9.33,9.37A9.36,9.36,0,0,0,20,6.69Zm0,16.4a7,7,0,1,1,7-7A7,7,0,0,1,20,23.09Z" style="fill:#fff"/><path d="M20,0A16,16,0,0,0,4,16.06c0,15.35,14.83,23.47,15.46,23.8a1.11,1.11,0,0,0,1.08,0C21.17,39.53,36,31.41,36,16.06A16,16,0,0,0,20,0Zm0,37.48C17.4,35.9,6.31,28.42,6.31,16.06a13.69,13.69,0,1,1,27.38,0C33.69,28.42,22.6,35.9,20,37.48Z" style="fill:#fff"/></svg>