<?xml version="1.0" encoding="utf-8"?>
<!-- Generator: Adobe Illustrator 24.0.1, SVG Export Plug-In . SVG Version: 6.00 Build 0)  -->
<svg fill="currentColor" version="1.1" id="Layer_1" xmlns="http://www.w3.org/2000/svg" xmlns:xlink="http://www.w3.org/1999/xlink" x="0px" y="0px"
	 viewBox="0 0 32 32" style="enable-background:new 0 0 32 32;" xml:space="preserve">
<title>Icons</title>
<g>
	<g>
		<path class="st0" d="M30.9,8.3H1.1C0.5,8.3,0,7.8,0,7.1S0.5,6,1.1,6h29.8C31.5,6,32,6.5,32,7.1S31.5,8.3,30.9,8.3z"/>
	</g>
	<g>
		<path class="st0" d="M30.9,17.1H1.1C0.5,17.1,0,16.6,0,16c0-0.6,0.5-1.1,1.1-1.1h29.8c0.6,0,1.1,0.5,1.1,1.1
			C32,16.6,31.5,17.1,30.9,17.1z"/>
	</g>
	<g>
		<path class="st0" d="M30.9,26H1.1C0.5,26,0,25.5,0,24.9c0-0.6,0.5-1.1,1.1-1.1h29.8c0.6,0,1.1,0.5,1.1,1.1
			C32,25.5,31.5,26,30.9,26z"/>
	</g>
</g>
</svg>
