<?xml version="1.0" encoding="utf-8"?>
<!-- Generator: Adobe Illustrator 24.0.1, SVG Export Plug-In . SVG Version: 6.00 Build 0)  -->
<svg fill="currentColor" version="1.1" id="Layer_1" xmlns="http://www.w3.org/2000/svg" xmlns:xlink="http://www.w3.org/1999/xlink" x="0px" y="0px"
	 viewBox="0 0 32 32" style="enable-background:new 0 0 32 32;" xml:space="preserve">
<path class="st0" d="M26.5,0h-21C2.5,0,0,2.5,0,5.5v21c0,3,2.5,5.5,5.5,5.5h21c3,0,5.5-2.5,5.5-5.5v-21C32,2.5,29.5,0,26.5,0z
	 M29.3,26.5c0,1.5-1.2,2.8-2.8,2.8H22v-10h3.5l0.5-4.4h-4V13c0-2.4,1.8-2.4,2.4-2.4h1.8V5.3h-1.8c-4.5,0-7.7,3.2-7.7,7.7v1.9h-3.6
	v4.4h3.6v10H5.5c-1.5,0-2.8-1.2-2.8-2.8v-21C2.7,4,4,2.7,5.5,2.7h21c1.5,0,2.8,1.2,2.8,2.8V26.5z"/>
</svg>
