<?xml version="1.0" encoding="utf-8"?>
<!-- Generator: Adobe Illustrator 24.0.1, SVG Export Plug-In . SVG Version: 6.00 Build 0)  -->
<svg fill="currentColor" version="1.1" id="Layer_1" xmlns="http://www.w3.org/2000/svg" xmlns:xlink="http://www.w3.org/1999/xlink" x="0px" y="0px"
	 viewBox="0 0 32 32" style="enable-background:new 0 0 32 32;" xml:space="preserve">
<g>
	<g>
		<path class="st0" d="M26.5,32h-21c-3,0-5.5-2.5-5.5-5.5v-21C0,2.5,2.5,0,5.5,0h21c3,0,5.5,2.5,5.5,5.5v21C32,29.5,29.5,32,26.5,32
			z M5.5,2.7C4,2.7,2.7,4,2.7,5.5v21c0,1.5,1.2,2.8,2.8,2.8h21c1.5,0,2.8-1.2,2.8-2.8v-21c0-1.5-1.2-2.8-2.8-2.8H5.5z"/>
	</g>
	<g>
		<path class="st0" d="M10.8,10.6v10.8c0,1.1,1.3,1.8,2.2,1.2l9.6-6c1-0.6,0.9-2-0.1-2.5l-9.6-4.8C11.9,8.8,10.8,9.5,10.8,10.6z"/>
	</g>
</g>
</svg>
