<?xml version="1.0" encoding="utf-8"?>
<!-- Generator: Adobe Illustrator 24.0.1, SVG Export Plug-In . SVG Version: 6.00 Build 0)  -->
<svg fill="currentColor" version="1.1" id="Layer_1" xmlns="http://www.w3.org/2000/svg" xmlns:xlink="http://www.w3.org/1999/xlink" x="0px" y="0px"
	 viewBox="0 0 32 32" style="enable-background:new 0 0 32 32;" xml:space="preserve">
<g>
	<g>
		<path class="st0" d="M14.8,20.4c1.5,1.1,4.5,3.6,5.9,3.1c0.6-0.2,0.8-1.1,1.3-4.6c0.5-3.6,1.1-7.3,1.2-8.3c0-1-0.7-1.2-1.6-0.8
			c-0.9,0.4-9.9,4.1-11.8,4.9c-1.9,0.8-3.4,1.3-3.4,1.9c0,0.6,1.3,0.9,2.8,1.3c1.5,0.3,1.7,0.4,3.9-1.1s5.4-4,5.8-3.7
			c0.4,0.3-0.2,1-3,3.5C14.1,18.1,12.7,18.9,14.8,20.4z"/>
	</g>
	<g>
		<path class="st0" d="M16,32C7.2,32,0,24.8,0,16S7.2,0,16,0s16,7.2,16,16S24.8,32,16,32z M16,2.7C8.7,2.7,2.7,8.7,2.7,16
			S8.7,29.3,16,29.3S29.3,23.3,29.3,16S23.3,2.7,16,2.7z"/>
	</g>
</g>
</svg>
