<?xml version="1.0" encoding="utf-8"?>
<!-- Generator: Adobe Illustrator 24.0.1, SVG Export Plug-In . SVG Version: 6.00 Build 0)  -->
<svg fill="currentColor" version="1.1" id="Layer_1" xmlns="http://www.w3.org/2000/svg" xmlns:xlink="http://www.w3.org/1999/xlink" x="0px" y="0px"
	 viewBox="0 0 32 32" style="enable-background:new 0 0 32 32;" xml:space="preserve">
<g>
	<g>
		<path class="st0" d="M24.3,32H7.7C3.4,32,0,28.6,0,24.3V7.7C0,3.4,3.4,0,7.7,0h16.7C28.6,0,32,3.4,32,7.7v16.7
			C32,28.6,28.6,32,24.3,32z M7.7,2.7c-2.7,0-4.9,2.2-4.9,4.9v16.7c0,2.7,2.2,4.9,4.9,4.9h16.7c2.7,0,4.9-2.2,4.9-4.9V7.7
			c0-2.7-2.2-4.9-4.9-4.9H7.7z"/>
	</g>
	<g>
		<path class="st0" d="M16,24.3c-4.6,0-8.3-3.7-8.3-8.3s3.7-8.3,8.3-8.3s8.3,3.7,8.3,8.3S20.6,24.3,16,24.3z M16,10.4
			c-3.1,0-5.6,2.5-5.6,5.6s2.5,5.6,5.6,5.6s5.6-2.5,5.6-5.6S19.1,10.4,16,10.4z"/>
	</g>
	<g>
		<circle class="st0" cx="24.7" cy="7" r="1.9"/>
	</g>
</g>
</svg>
