<?xml version="1.0" encoding="utf-8"?>
<!-- Generator: Adobe Illustrator 24.0.1, SVG Export Plug-In . SVG Version: 6.00 Build 0)  -->
<svg fill="currentColor" version="1.1" id="Layer_1" xmlns="http://www.w3.org/2000/svg" xmlns:xlink="http://www.w3.org/1999/xlink" x="0px" y="0px"
	 viewBox="0 0 32 32" style="enable-background:new 0 0 32 32;" xml:space="preserve">
<g>
	<g>
		<path class="st0" d="M14.7,20.5c1.5,1.1,4.5,3.6,6,3.1c0.6-0.2,0.8-1.1,1.3-4.7c0.5-3.6,1.2-7.4,1.2-8.4c0-1-0.7-1.2-1.6-0.8
			c-0.9,0.4-10,4.2-12,5c-2,0.8-3.5,1.3-3.5,1.9c0,0.7,1.4,1,2.9,1.3s1.8,0.4,4-1.1s5.5-4,5.9-3.7c0.4,0.3-0.2,1-3,3.5
			C14.1,18.2,12.6,18.9,14.7,20.5z"/>
	</g>
	<g>
		<path class="st0" d="M16,32C7.2,32,0,24.8,0,16C0,7.2,7.2,0,16,0c8.8,0,16,7.2,16,16C32,24.8,24.8,32,16,32z M16,2.2
			C8.4,2.2,2.2,8.4,2.2,16c0,7.6,6.2,13.8,13.8,13.8c7.6,0,13.8-6.2,13.8-13.8C29.8,8.4,23.6,2.2,16,2.2z"/>
	</g>
</g>
</svg>
