<svg id="Layer_1" data-name="Layer 1" xmlns="http://www.w3.org/2000/svg" viewBox="0 0 32 32"><title>Icons</title><path d="M21.64,9.67c-.87.38-10,4.14-12,5s-3.45,1.28-3.45,1.93,1.36,1,2.86,1.3,1.77.35,4-1.12,5.48-4,5.86-3.72-.18,1-3,3.54c-1.81,1.59-3.27,2.35-1.16,3.89,1.5,1.11,4.52,3.63,5.95,3.11.56-.2.78-1.07,1.32-4.7s1.17-7.41,1.21-8.39S22.51,9.29,21.64,9.67Z" style="fill:#fff"/><path d="M16,0A16,16,0,1,0,32,16,16,16,0,0,0,16,0Zm0,29.68A13.68,13.68,0,1,1,29.68,16,13.7,13.7,0,0,1,16,29.68Z" style="fill:#fff"/></svg>