<?xml version="1.0" encoding="utf-8"?>
<!-- Generator: Adobe Illustrator 24.0.1, SVG Export Plug-In . SVG Version: 6.00 Build 0)  -->
<svg version="1.1" id="Layer_1" xmlns="http://www.w3.org/2000/svg" xmlns:xlink="http://www.w3.org/1999/xlink" x="0px" y="0px"
	 viewBox="0 0 32 32" style="enable-background:new 0 0 32 32;" xml:space="preserve">
<style type="text/css">
	.st0{fill:#FFFFFF;}
</style>
<g>
	<path class="st0" d="M21.9,9.4C21,9.8,11.4,13.7,9.4,14.6c-2,0.9-3.6,1.3-3.6,2c0,0.7,1.4,1,3,1.4c1.6,0.4,1.8,0.4,4.1-1.2
		s5.7-4.2,6.1-3.9c0.4,0.3-0.2,1.1-3.2,3.7c-1.9,1.7-3.4,2.5-1.2,4.1c1.6,1.2,4.7,3.8,6.2,3.3c0.6-0.2,0.8-1.1,1.4-4.9
		s1.2-7.7,1.3-8.8C23.6,9.2,22.8,9,21.9,9.4z"/>
	<path class="st0" d="M16,0C7.2,0,0,7.2,0,16s7.2,16,16,16s16-7.2,16-16S24.8,0,16,0z M16,31C7.7,31,1,24.3,1,16S7.7,1,16,1
		s15,6.7,15,15S24.3,31,16,31z"/>
</g>
</svg>
