<?xml version="1.0" encoding="utf-8"?>
<!-- Generator: Adobe Illustrator 24.0.1, SVG Export Plug-In . SVG Version: 6.00 Build 0)  -->
<svg version="1.1"
	 id="Layer_1"
	 xmlns="http://www.w3.org/2000/svg"
	 xmlns:xlink="http://www.w3.org/1999/xlink"
	 x="0px"
	 y="0px"
	 viewBox="0 0 32 32"
	 style="enable-background:new 0 0 32 32;"
	 xml:space="preserve"
	 fill="currentColor"
>
<g>
	<path class="st0" d="M27.1,0H4.9C2.2,0,0,2.2,0,4.9v22.2C0,29.8,2.2,32,4.9,32h22.2c2.7,0,4.9-2.2,4.9-4.9V4.9
		C32,2.2,29.8,0,27.1,0z M31,27.1c0,2.2-1.8,3.9-3.9,3.9H4.9C2.7,31,1,29.3,1,27.1V4.9C1,2.7,2.7,1,4.9,1h22.2C29.3,1,31,2.7,31,4.9
		V27.1z"/>
	<path class="st0" d="M22.1,13.9l-8.4-4.2c-0.6-0.3-1.2-0.2-1.7,0.1c-0.5,0.3-0.8,0.9-0.8,1.5v9.5c0,0.7,0.3,1.2,0.9,1.5
		c0.3,0.1,0.6,0.2,0.9,0.2c0.3,0,0.7-0.1,0.9-0.3l8.4-5.3c0.5-0.3,0.9-0.9,0.8-1.6C23,14.7,22.7,14.1,22.1,13.9z M21.7,16.1
		l-8.4,5.3c-0.2,0.2-0.6,0.2-0.8,0c-0.3-0.1-0.4-0.4-0.4-0.7v-9.5c0-0.3,0.1-0.5,0.4-0.7c0.1-0.1,0.3-0.1,0.4-0.1
		c0.1,0,0.2,0,0.4,0.1l8.4,4.2c0.3,0.1,0.4,0.4,0.4,0.7C22.1,15.7,22,16,21.7,16.1z"/>
</g>
</svg>
