<?xml version="1.0" encoding="utf-8"?>
<!-- Generator: Adobe Illustrator 24.0.1, SVG Export Plug-In . SVG Version: 6.00 Build 0)  -->
<svg fill="currentColor" version="1.1" id="Layer_1" xmlns="http://www.w3.org/2000/svg" xmlns:xlink="http://www.w3.org/1999/xlink" x="0px" y="0px"
	 viewBox="0 0 32 32" style="enable-background:new 0 0 32 32;" xml:space="preserve">
<g>
	<path class="st0" d="M26.7,0H5.3C2.4,0,0,2.4,0,5.3v21.3C0,29.6,2.4,32,5.3,32h21.3c2.9,0,5.3-2.4,5.3-5.3V5.3
		C32,2.4,29.6,0,26.7,0z M29.8,26.7c0,1.7-1.4,3.1-3.1,3.1H5.3c-1.7,0-3.1-1.4-3.1-3.1V5.3c0-1.7,1.4-3.1,3.1-3.1h21.3
		c1.7,0,3.1,1.4,3.1,3.1V26.7z"/>
	<path class="st0" d="M23.1,13l-9.7-4.9c-0.8-0.4-1.8-0.4-2.5,0.1C10,8.8,9.6,9.6,9.6,10.5v11c0,0.9,0.5,1.8,1.3,2.3
		c0.4,0.2,0.8,0.3,1.3,0.3c0.5,0,1-0.1,1.4-0.4l9.7-6.2c0.8-0.5,1.3-1.4,1.2-2.3C24.5,14.3,23.9,13.4,23.1,13z M22.1,15.7l-9.7,6.2
		c-0.2,0.1-0.3,0-0.4,0c-0.1,0-0.2-0.1-0.2-0.3v-11c0-0.2,0.1-0.3,0.2-0.3c0,0,0.1-0.1,0.2-0.1c0,0,0.1,0,0.2,0l9.7,4.9
		c0.2,0.1,0.2,0.2,0.2,0.3C22.3,15.4,22.3,15.6,22.1,15.7z"/>
</g>
</svg>
