<?xml version="1.0" encoding="utf-8"?>
<svg version="1.1" id="Layer_1"
	 xmlns="http://www.w3.org/2000/svg" xmlns:xlink="http://www.w3.org/1999/xlink" x="0px" y="0px"
	 viewBox="0 0 32 32"
	 style="enable-background:new 0 0 32 32;"
	 xml:space="preserve"
	 fill="currentColor"
>
	<path class="st0" d="M24.8,32H7.2C3.2,32,0,28.8,0,24.8V7.2C0,3.2,3.2,0,7.2,0h17.7C28.8,0,32,3.2,32,7.2v17.7
		C32,28.8,28.8,32,24.8,32z M7.2,1C3.7,1,1,3.7,1,7.2v17.7C1,28.3,3.7,31,7.2,31h17.7c3.4,0,6.2-2.8,6.2-6.2V7.2
		C31,3.7,28.3,1,24.8,1H7.2z"/>
	<path class="st0" d="M13.3,23.2c-0.4,0-0.7-0.1-1.1-0.3c-0.7-0.4-1.1-1.1-1.1-1.9V11c0-0.8,0.4-1.5,1.1-1.9
		c0.7-0.4,1.6-0.4,2.2,0.1l7.7,5c0.6,0.4,1,1.1,1,1.9c0,0.8-0.4,1.4-1,1.8l-7.7,5C14.1,23,13.7,23.2,13.3,23.2z M13.3,9.8
		c-0.2,0-0.4,0.1-0.6,0.2C12.3,10.2,12,10.6,12,11V21c0,0.5,0.2,0.9,0.6,1.1c0.4,0.2,0.9,0.2,1.2,0l7.8-5c0.4-0.2,0.6-0.6,0.6-1
		c0-0.4-0.2-0.8-0.6-1l-7.8-5C13.7,9.9,13.5,9.8,13.3,9.8z"/>
</svg>
